<svg xmlns="http://www.w3.org/2000/svg" xmlns:xlink="http://www.w3.org/1999/xlink" id="Layer_1" x="0px" y="0px" viewBox="0 0 100 100" style="enable-background:new 0 0 100 100;" xml:space="preserve"><style type="text/css">	.st0{fill:#FFFFFF;}	.st1{fill:none;stroke:#FFFFFF;stroke-width:0.3622;stroke-miterlimit:10;}	.st2{fill:none;stroke:#FFFFFF;stroke-width:0.7244;stroke-miterlimit:10;}	.st3{fill:none;stroke:#FFFFFF;stroke-width:0.7244;stroke-linejoin:round;stroke-miterlimit:10;}	.st4{fill:none;stroke:#FFFFFF;stroke-width:1.4489;stroke-linecap:round;stroke-linejoin:round;stroke-miterlimit:10;}</style><g>	<g>		<path class="st0" d="M49.4,35.28v34.03H22.2V35.28H49.4 M51.58,33.11H20.03v38.38h31.55V33.11L51.58,33.11z"></path>	</g>	<g>		<g>			<circle class="st0" cx="31.24" cy="41.04" r="0.87"></circle>			<path class="st0" d="M32.17,43.29h-1.85c-0.22,0-0.39-0.18-0.39-0.39v-0.04c0-0.22,0.18-0.39,0.39-0.39h1.85    c0.22,0,0.39,0.18,0.39,0.39l0,0.04C32.56,43.11,32.38,43.29,32.17,43.29z"></path>		</g>		<g>			<circle class="st0" cx="35.8" cy="41.04" r="0.87"></circle>			<path class="st0" d="M36.73,43.29h-1.85c-0.22,0-0.39-0.18-0.39-0.39v-0.04c0-0.22,0.18-0.39,0.39-0.39h1.85    c0.22,0,0.39,0.18,0.39,0.39l0,0.04C37.12,43.11,36.94,43.29,36.73,43.29z"></path>		</g>		<g>			<circle class="st0" cx="40.36" cy="41.04" r="0.87"></circle>			<path class="st0" d="M41.29,43.29h-1.85c-0.22,0-0.39-0.18-0.39-0.39v-0.04c0-0.22,0.18-0.39,0.39-0.39h1.85    c0.22,0,0.39,0.18,0.39,0.39l0,0.04C41.68,43.11,41.51,43.29,41.29,43.29z"></path>		</g>		<g>			<circle class="st0" cx="31.24" cy="46.68" r="0.87"></circle>			<path class="st0" d="M32.17,48.92h-1.85c-0.22,0-0.39-0.18-0.39-0.39v-0.04c0-0.22,0.18-0.39,0.39-0.39h1.85    c0.22,0,0.39,0.18,0.39,0.39l0,0.04C32.56,48.74,32.38,48.92,32.17,48.92z"></path>		</g>		<g>			<circle class="st0" cx="35.8" cy="46.68" r="0.87"></circle>			<path class="st0" d="M36.73,48.92h-1.85c-0.22,0-0.39-0.18-0.39-0.39v-0.04c0-0.22,0.18-0.39,0.39-0.39h1.85    c0.22,0,0.39,0.18,0.39,0.39l0,0.04C37.12,48.74,36.94,48.92,36.73,48.92z"></path>		</g>		<g>			<circle class="st0" cx="40.36" cy="46.68" r="0.87"></circle>			<path class="st0" d="M41.29,48.92h-1.85c-0.22,0-0.39-0.18-0.39-0.39v-0.04c0-0.22,0.18-0.39,0.39-0.39h1.85    c0.22,0,0.39,0.18,0.39,0.39l0,0.04C41.68,48.74,41.51,48.92,41.29,48.92z"></path>		</g>	</g>	<g>		<g>			<path class="st0" d="M45.5,55.5c0.03,0,0.05,0.02,0.05,0.05v9.62c0,0.03-0.02,0.05-0.05,0.05H26.1c-0.03,0-0.05-0.02-0.05-0.05    v-9.62c0-0.03,0.02-0.05,0.05-0.05H45.5 M45.5,54.53H26.1c-0.56,0-1.02,0.46-1.02,1.02v9.62c0,0.56,0.46,1.02,1.02,1.02H45.5    c0.56,0,1.02-0.46,1.02-1.02v-9.62C46.52,54.99,46.07,54.53,45.5,54.53L45.5,54.53z"></path>		</g>		<g>			<rect x="31.03" y="59.46" class="st1" width="1.79" height="1.79"></rect>			<rect x="34.91" y="59.46" class="st1" width="1.79" height="1.79"></rect>			<rect x="38.78" y="59.46" class="st1" width="1.79" height="1.79"></rect>		</g>	</g>	<polyline class="st2" points="51.3,50.28 53.5,50.28 53.5,22.74 72.78,22.74 72.78,27.14  "></polyline>	<polyline class="st3" points="51.39,51.93 55.43,51.93 55.43,24.39 71.22,24.39 71.22,27.12  "></polyline>	<polyline class="st3" points="51.37,53.58 72.78,53.58 72.78,63.89  "></polyline>	<polyline class="st3" points="51.34,55.24 71.22,55.24 71.22,63.86  "></polyline>	<line class="st4" x1="64.94" y1="27.87" x2="79.1" y2="27.87"></line>	<g>		<path class="st0" d="M78.16,29.35v0.05H65.84v-0.05H78.16 M78.87,28.63H65.12v1.48h13.76V28.63L78.87,28.63z"></path>	</g>	<g>		<path class="st0" d="M78.15,29.35v0.59c0,0.77-0.63,1.4-1.4,1.4h-9.5c-0.77,0-1.4-0.63-1.4-1.4v-0.59H78.15 M78.87,28.62H65.12   v1.32c0,1.17,0.95,2.13,2.13,2.13h9.5c1.17,0,2.13-0.95,2.13-2.13V28.62L78.87,28.62z"></path>	</g>	<g>		<path class="st0" d="M75.97,32.08v1.72c0,0.69-0.56,1.26-1.26,1.26h-5.33c-0.69,0-1.26-0.56-1.26-1.26v-1.72H75.97 M76.69,31.35   H67.4v2.44c0,1.09,0.89,1.98,1.98,1.98h5.33c1.09,0,1.98-0.89,1.98-1.98V31.35L76.69,31.35z"></path>	</g>	<g>		<path class="st0" d="M71.72,36.09c0.37,0.74,0.58,0.78,0.87,1.57c0.19,0.7-0.02,1.69-0.7,2.02c0.19-0.94-0.06-1.79-0.31-2.69   c-0.02-0.29-0.08-0.72,0.11-0.95C71.7,36.04,71.71,36.07,71.72,36.09L71.72,36.09z"></path>	</g>	<g>		<path class="st0" d="M73.58,37.46c0.37,0.74,0.58,0.78,0.87,1.57c0.19,0.7-0.02,1.69-0.7,2.02c0.19-0.94-0.06-1.79-0.31-2.69   c-0.02-0.29-0.08-0.72,0.11-0.95C73.57,37.42,73.58,37.45,73.58,37.46L73.58,37.46z"></path>	</g>	<g>		<path class="st0" d="M69.87,37.44c0.36,0.74,0.58,0.78,0.87,1.57c0.19,0.7-0.02,1.69-0.7,2.02c0.19-0.94-0.06-1.79-0.32-2.69   c-0.02-0.29-0.08-0.72,0.11-0.95C69.85,37.39,69.86,37.43,69.87,37.44L69.87,37.44z"></path>	</g>	<line class="st4" x1="64.94" y1="64.57" x2="79.1" y2="64.57"></line>	<g>		<path class="st0" d="M78.16,66.05v0.05H65.84v-0.05H78.16 M78.87,65.34H65.12v1.48h13.76V65.34L78.87,65.34z"></path>	</g>	<g>		<path class="st0" d="M78.15,66.05v0.59c0,0.77-0.63,1.4-1.4,1.4h-9.5c-0.77,0-1.4-0.63-1.4-1.4v-0.59H78.15 M78.87,65.32H65.12   v1.32c0,1.17,0.95,2.13,2.13,2.13h9.5c1.17,0,2.13-0.95,2.13-2.13V65.32L78.87,65.32z"></path>	</g>	<g>		<path class="st0" d="M75.97,68.78v1.72c0,0.69-0.56,1.26-1.26,1.26h-5.33c-0.69,0-1.26-0.56-1.26-1.26v-1.72H75.97 M76.69,68.05   H67.4v2.44c0,1.09,0.89,1.98,1.98,1.98h5.33c1.09,0,1.98-0.89,1.98-1.98V68.05L76.69,68.05z"></path>	</g>	<g>		<path class="st0" d="M71.72,72.79c0.37,0.74,0.58,0.78,0.87,1.57c0.19,0.7-0.02,1.69-0.7,2.02c0.19-0.94-0.06-1.79-0.31-2.69   c-0.02-0.29-0.08-0.72,0.11-0.95C71.7,72.74,71.71,72.78,71.72,72.79L71.72,72.79z"></path>	</g>	<g>		<path class="st0" d="M73.58,74.17c0.37,0.74,0.58,0.78,0.87,1.57c0.19,0.7-0.02,1.69-0.7,2.02c0.19-0.94-0.06-1.79-0.31-2.69   c-0.02-0.29-0.08-0.72,0.11-0.95C73.57,74.12,73.58,74.15,73.58,74.17L73.58,74.17z"></path>	</g>	<g>		<path class="st0" d="M69.87,74.14c0.36,0.74,0.58,0.78,0.87,1.57c0.19,0.7-0.02,1.69-0.7,2.02c0.19-0.94-0.06-1.79-0.32-2.69   c-0.02-0.29-0.08-0.72,0.11-0.95C69.85,74.1,69.86,74.13,69.87,74.14L69.87,74.14z"></path>	</g></g></svg>