<svg xmlns="http://www.w3.org/2000/svg" xmlns:xlink="http://www.w3.org/1999/xlink" id="Layer_1" x="0px" y="0px" viewBox="0 0 100 100" style="enable-background:new 0 0 100 100;" xml:space="preserve"><style type="text/css">	.st0{fill:#FFFFFF;}	.st1{fill:none;stroke:#FFFFFF;stroke-width:1.1206;stroke-linecap:round;stroke-linejoin:round;stroke-miterlimit:10;}	.st2{fill:none;stroke:#FFFFFF;stroke-width:0.8716;stroke-linecap:round;stroke-linejoin:round;stroke-miterlimit:10;}</style><g>	<g>		<path class="st0" d="M75.94,29.73V70.4H23.91V29.73H75.94 M77.36,26.24H22.49c-1.14,0-2.07,0.93-2.07,2.07v43.51   c0,1.14,0.93,2.07,2.07,2.07h54.87c1.14,0,2.07-0.93,2.07-2.07V28.31C79.42,27.17,78.5,26.24,77.36,26.24L77.36,26.24z"></path>	</g>	<g>		<path class="st0" d="M50.43,36.62v26.89H31.12V36.62H50.43 M51.79,34.13H29.76c-0.63,0-1.14,0.51-1.14,1.14v29.6   c0,0.63,0.51,1.14,1.14,1.14h22.02c0.63,0,1.14-0.51,1.14-1.14v-29.6C52.92,34.64,52.41,34.13,51.79,34.13L51.79,34.13z"></path>	</g>	<g>		<g>			<path class="st0" d="M35.19,39.45c0.77,0,1.4,0.63,1.4,1.4s-0.63,1.4-1.4,1.4s-1.4-0.63-1.4-1.4S34.42,39.45,35.19,39.45     M35.19,38.33c-1.39,0-2.52,1.13-2.52,2.52s1.13,2.52,2.52,2.52s2.52-1.13,2.52-2.52S36.59,38.33,35.19,38.33L35.19,38.33z"></path>		</g>		<line class="st1" x1="38.88" y1="40.85" x2="47.92" y2="40.85"></line>	</g>	<g>		<g>			<path class="st0" d="M35.19,45.57c0.77,0,1.4,0.63,1.4,1.4s-0.63,1.4-1.4,1.4s-1.4-0.63-1.4-1.4S34.42,45.57,35.19,45.57     M35.19,44.45c-1.39,0-2.52,1.13-2.52,2.52s1.13,2.52,2.52,2.52s2.52-1.13,2.52-2.52S36.59,44.45,35.19,44.45L35.19,44.45z"></path>		</g>		<line class="st1" x1="38.88" y1="46.97" x2="47.92" y2="46.97"></line>	</g>	<g>		<g>			<path class="st0" d="M35.19,51.69c0.77,0,1.4,0.63,1.4,1.4s-0.63,1.4-1.4,1.4s-1.4-0.63-1.4-1.4S34.42,51.69,35.19,51.69     M35.19,50.57c-1.39,0-2.52,1.13-2.52,2.52s1.13,2.52,2.52,2.52s2.52-1.13,2.52-2.52S36.59,50.57,35.19,50.57L35.19,50.57z"></path>		</g>		<line class="st1" x1="38.88" y1="53.1" x2="47.92" y2="53.1"></line>	</g>	<g>		<g>			<path class="st0" d="M35.19,57.82c0.77,0,1.4,0.63,1.4,1.4s-0.63,1.4-1.4,1.4s-1.4-0.63-1.4-1.4S34.42,57.82,35.19,57.82     M35.19,56.7c-1.39,0-2.52,1.13-2.52,2.52s1.13,2.52,2.52,2.52s2.52-1.13,2.52-2.52S36.59,56.7,35.19,56.7L35.19,56.7z"></path>		</g>		<line class="st1" x1="38.88" y1="59.22" x2="47.92" y2="59.22"></line>	</g>	<circle class="st2" cx="71.33" cy="50.01" r="1.61"></circle></g></svg>