<svg xmlns="http://www.w3.org/2000/svg" xmlns:xlink="http://www.w3.org/1999/xlink" id="Layer_1" x="0px" y="0px" viewBox="0 0 100 100" style="enable-background:new 0 0 100 100;" xml:space="preserve"><style type="text/css">	.st0{fill:none;stroke:#FFFFFF;stroke-width:1.3568;stroke-miterlimit:10;}</style><g>	<path class="st0" d="M51.2,25.06c0.6,0.22,0.82,0.65,0.82,1.28c-0.02,1.95-0.01,3.89-0.01,5.84c0,0.81-0.39,1.21-1.2,1.21  c-0.62,0-1.24,0.01-1.86,0c-0.71-0.01-1.12-0.42-1.12-1.13c0-1.98,0.01-3.96-0.01-5.94c0-0.62,0.23-1.04,0.82-1.25  C49.5,25.06,50.35,25.06,51.2,25.06z"></path>	<path class="st0" d="M24.92,48.79c0.22-0.6,0.65-0.83,1.28-0.82c1.96,0.02,3.91,0.02,5.87,0c0.63-0.01,1.23,0.38,1.19,1.18  c-0.03,0.63,0,1.26-0.01,1.89c0,0.71-0.42,1.12-1.13,1.12c-1.97,0-3.94-0.01-5.92,0.01c-0.63,0.01-1.06-0.22-1.28-0.82  C24.92,50.49,24.92,49.64,24.92,48.79z"></path>	<path class="st0" d="M35.51,66.72c0.09-0.48,0.17-0.94,0.25-1.39c0.45-2.46,0.9-4.92,1.36-7.38c0.45-2.45,0.91-4.91,1.36-7.36  c0.41-2.25,0.84-4.5,1.24-6.76c0.36-2,2.26-3.85,4.28-4.12c0.25-0.03,0.51-0.05,0.76-0.05c3.44,0,6.87,0.02,10.31-0.01  c2.21-0.02,4.47,1.7,4.98,3.81c0.25,1.03,0.4,2.08,0.6,3.12c0.44,2.36,0.87,4.72,1.3,7.08c0.43,2.35,0.87,4.71,1.3,7.06  c0.35,1.9,0.7,3.8,1.05,5.71c0.02,0.09,0.02,0.18,0.04,0.29C54.72,66.72,45.14,66.72,35.51,66.72z M44.41,62.56  c0.02-0.06,0.04-0.1,0.04-0.14c0.39-2.15,0.79-4.31,1.18-6.46c0.68-3.71,1.36-7.43,2.03-11.14c0.07-0.39,0.26-0.65,0.57-0.86  c0.04-0.03,0.09-0.06,0.14-0.1c-0.04-0.02-0.06-0.03-0.07-0.03c-1.28,0-2.55-0.01-3.83,0c-0.36,0-0.85,0.45-0.92,0.82  c-0.46,2.54-0.92,5.07-1.39,7.61c-0.43,2.37-0.87,4.74-1.3,7.11c-0.19,1.06-0.39,2.12-0.58,3.19  C41.66,62.56,43.03,62.56,44.41,62.56z"></path>	<path class="st0" d="M68.65,75.06c-12.5,0-24.98,0-37.47,0c-0.01-0.08-0.01-0.15-0.02-0.23c0-1.28-0.01-2.55,0-3.83  c0.01-1.08,0.63-1.91,1.61-2.13c0.19-0.04,0.39-0.05,0.58-0.05c11.04,0,22.08,0,33.12,0c1.09,0,1.92,0.63,2.14,1.63  c0.03,0.16,0.04,0.32,0.04,0.48c0,1.32,0,2.64,0,3.95C68.67,74.94,68.66,74.99,68.65,75.06z"></path>	<path class="st0" d="M33.83,31.23c0.22,0.11,0.48,0.18,0.65,0.35c1.52,1.5,3.03,3.01,4.53,4.52c0.37,0.38,0.41,0.95,0.04,1.34  c-0.58,0.62-1.19,1.22-1.81,1.79c-0.37,0.34-0.95,0.27-1.34-0.12c-0.91-0.91-1.82-1.82-2.72-2.72c-0.56-0.56-1.12-1.12-1.68-1.68  c-0.48-0.49-0.49-1.06-0.01-1.55c0.51-0.52,1.04-1.03,1.55-1.55C33.26,31.41,33.5,31.29,33.83,31.23z"></path>	<path class="st0" d="M68.71,33.93c0.01,0.3-0.09,0.55-0.3,0.76c-1.48,1.48-2.95,2.96-4.44,4.43c-0.44,0.44-1.04,0.44-1.48,0.01  c-0.53-0.51-1.06-1.03-1.58-1.56c-0.44-0.45-0.44-1.09,0.02-1.55c1.46-1.46,2.92-2.92,4.38-4.38c0.47-0.47,1.06-0.48,1.53-0.01  c0.53,0.52,1.05,1.04,1.57,1.57C68.62,33.4,68.72,33.64,68.71,33.93z"></path>	<path class="st0" d="M70.77,47.98c1,0,2.01,0,3.01,0c0.74,0,1.15,0.41,1.15,1.15c0,0.65,0,1.29,0,1.94c0,0.64-0.43,1.08-1.07,1.08  c-2.06,0.01-4.12,0.01-6.17,0c-0.66,0-1.08-0.42-1.08-1.09c-0.01-0.67-0.01-1.34,0-2.02c0.01-0.64,0.43-1.06,1.08-1.07  C68.71,47.98,69.74,47.98,70.77,47.98z"></path></g></svg>