<svg xmlns="http://www.w3.org/2000/svg" xmlns:xlink="http://www.w3.org/1999/xlink" id="Layer_1" x="0px" y="0px" viewBox="0 0 100 100" style="enable-background:new 0 0 100 100;" xml:space="preserve"><style type="text/css">	.st0{fill:none;stroke:#FFFFFF;stroke-width:1.5546;stroke-linejoin:round;stroke-miterlimit:10;}	.st1{fill:#FFFFFF;}</style><g>	<path class="st0" d="M62.99,60.81c1.52,3.42,1.09,6.65-0.43,9.75c-1.9,3.87-5.07,6.11-9.34,6.77c-0.19,0.03-0.39,0.03-0.58,0.03  c-1.73,0.03-1.74,0.01-2.16-1.7c-0.38-1.53-1.15-2.87-2.08-4.11c-1.15-1.54-2.12-3.16-2.33-5.15c-0.59,1.11-0.78,2.3-0.72,3.52  c0.06,1.21,0.32,2.38,0.78,3.51c0.24,0.59,0.27,1.15-0.29,1.57c-0.58,0.45-1.13,0.22-1.65-0.17c-2.54-1.87-3.81-4.5-4.4-7.5  c-0.43-2.19-0.26-4.36,0.69-6.52c-1.76,0-3.43,0-5.09,0c-1.98,0-3.95,0.07-5.87-0.61c-4.36-1.53-7.31-5.97-7.07-10.58  c0.25-4.81,3.86-9.18,9.18-9.98c0.5-0.07,1.02-0.07,1.52-0.05c0.38,0.02,0.49-0.12,0.53-0.49c0.46-4.39,2.27-8.15,5.44-11.21  c3.9-3.76,8.6-5.45,13.99-5.1c8.01,0.52,14.83,6.57,16.44,14.5c0.08,0.4,0.26,0.81,0.22,1.2c-0.13,1.24,0.57,1.69,1.6,2.15  c3.84,1.7,6.28,5.88,6.03,10.07c-0.34,5.72-4.94,10.07-10.68,10.09C65.5,60.82,64.27,60.81,62.99,60.81z"></path>	<path class="st1" d="M61.65,64.62c-0.35,0.3-0.54,0.48-0.75,0.64c-1.15,0.88-2.44,1.3-3.87,0.99c-3.57-0.76-5.07-4.25-3.24-7.45  c0.35-0.61,0.77-1.18,1.03-1.83c1.35-3.32,0.49-6.28-1.56-9.02c-0.35-0.46-0.69-0.96-1.27-1.24c-0.38,4.23-1.25,6.16-4.14,9.06  c-1.02,1.03-2.11,1.99-3.16,3c-2.15,2.07-3.17,4.56-2.78,7.58c0.14,1.05,0.62,2.66,1.05,3.2c0.02-0.02,0.05-0.03,0.05-0.05  c0.01-0.09,0.02-0.19,0.03-0.29c0.14-2.92,1.29-5.4,3.26-7.54c0.41-0.44,0.88-0.63,1.43-0.39c0.51,0.22,0.75,0.67,0.74,1.22  c-0.01,0.36-0.04,0.72-0.08,1.08c-0.24,2.18,0.04,4.22,1.43,6.03c1.16,1.52,2.2,3.13,2.73,5c0.13,0.44,0.39,0.46,0.77,0.39  c3-0.57,5.29-2.17,6.86-4.77C61.17,68.58,61.62,66.74,61.65,64.62z"></path>	<path class="st0" d="M58.01,60.82C58.01,60.82,58.01,60.81,58.01,60.82c-0.67,0-1.35,0.03-2.02-0.01c-0.56-0.04-0.7,0.21-0.7,0.72  c0,1.22,0.93,2.33,2.19,2.48c1.91,0.24,2.95-1.16,3.04-2.94c0.01-0.33-0.24-0.24-0.41-0.24C59.41,60.81,58.71,60.82,58.01,60.82z"></path>	<path class="st1" d="M39.31,40.21c0.17-5.38,4.5-10.45,9.82-11.47c0.81-0.16,1.61-0.3,2.44-0.29c0.82,0.02,1.29,0.44,1.29,1.15  c0.01,0.7-0.47,1.12-1.29,1.15c-5.04,0.16-9.1,3.73-9.91,8.71c-0.07,0.45-0.06,0.92-0.11,1.37c-0.08,0.76-0.57,1.25-1.18,1.21  c-0.63-0.05-1.06-0.57-1.07-1.32C39.3,40.55,39.31,40.38,39.31,40.21z"></path></g></svg>