<svg xmlns="http://www.w3.org/2000/svg" xmlns:xlink="http://www.w3.org/1999/xlink" id="Layer_1" x="0px" y="0px" viewBox="0 0 100 100" style="enable-background:new 0 0 100 100;" xml:space="preserve"><style type="text/css">	.st0{fill:#FFFFFF;}</style><g>	<g>		<path class="st0" d="M64.65,53.62c-0.98,0-1.95,0.01-2.93,0c-0.27,0-0.44,0.06-0.57,0.34c-0.38,0.84-1.08,1.25-1.99,1.22   c-0.88-0.03-1.52-0.49-1.86-1.3c-0.09-0.22-0.21-0.26-0.41-0.26c-1.14,0.01-2.27,0-3.41,0c-0.27,0-0.48-0.09-0.59-0.36   c-0.1-0.25,0.02-0.44,0.19-0.59c0.14-0.13,0.34-0.13,0.53-0.13c1.1,0,2.2-0.01,3.3,0c0.21,0,0.32-0.07,0.41-0.27   c0.37-0.84,1.03-1.29,1.94-1.29c0.92,0,1.57,0.48,1.94,1.31c0.09,0.2,0.18,0.25,0.38,0.25c1.94,0,3.88,0,5.82,0   c0.11,0,0.22,0,0.33,0c0.38,0.02,0.63,0.24,0.63,0.55c0,0.32-0.24,0.53-0.63,0.54c-0.53,0.01-1.06,0-1.59,0   C65.64,53.61,65.15,53.61,64.65,53.62C64.65,53.62,64.65,53.62,64.65,53.62z M59.23,52.06c-0.57,0-1.01,0.44-1.01,1.01   c0,0.58,0.46,1.02,1.05,1.02c0.57-0.01,1.01-0.45,1.01-1.01C60.27,52.49,59.83,52.06,59.23,52.06z"></path>		<path class="st0" d="M57.74,46.54c1.4,0,2.79-0.01,4.19,0.01c0.23,0,0.34-0.05,0.44-0.28c0.36-0.82,1.01-1.28,1.91-1.29   c0.92-0.02,1.58,0.45,1.96,1.27c0.11,0.23,0.22,0.32,0.47,0.3c0.36-0.02,0.72-0.01,1.08,0c0.33,0.01,0.57,0.22,0.57,0.52   c0,0.32-0.18,0.52-0.49,0.55c-0.38,0.03-0.77,0.04-1.15,0.01c-0.28-0.02-0.38,0.08-0.49,0.31c-0.55,1.18-1.79,1.6-2.91,1   c-0.43-0.23-0.75-0.57-0.93-1.02c-0.09-0.22-0.21-0.29-0.44-0.29c-2.35,0.01-4.7,0-7.05,0c-0.5,0-1.01-0.01-1.51-0.03   c-0.33-0.01-0.53-0.2-0.52-0.54c0.01-0.3,0.26-0.5,0.62-0.51C54.9,46.53,56.32,46.54,57.74,46.54   C57.74,46.54,57.74,46.54,57.74,46.54z M65.33,47.08c0-0.58-0.46-1.04-1.02-1.03c-0.56,0.01-1,0.45-1,1.02   c0,0.61,0.42,1.04,1,1.04C64.89,48.1,65.33,47.67,65.33,47.08z"></path>		<path class="st0" d="M63.37,41.62c-1.41,0-2.82,0.01-4.23-0.01c-0.24,0-0.37,0.06-0.47,0.3c-0.36,0.84-1.03,1.29-1.94,1.29   c-0.91,0-1.56-0.48-1.94-1.31c-0.09-0.2-0.2-0.28-0.41-0.27c-0.31,0.01-0.62,0.01-0.93-0.01c-0.38-0.02-0.62-0.24-0.6-0.56   c0.01-0.31,0.23-0.5,0.6-0.51c0.07,0,0.15-0.01,0.22,0c0.59,0.06,1-0.04,1.38-0.67c0.84-1.39,2.92-1.14,3.6,0.36   c0.12,0.25,0.25,0.31,0.5,0.31c2.85-0.01,5.71,0,8.56,0c0.4,0,0.63,0.2,0.64,0.51c0,0.32-0.23,0.53-0.61,0.55   c-0.11,0.01-0.22,0-0.33,0C66.06,41.62,64.72,41.62,63.37,41.62C63.37,41.62,63.37,41.62,63.37,41.62z M57.76,41.09   c-0.01-0.58-0.46-1.03-1.04-1.02c-0.57,0.01-0.98,0.45-0.98,1.04c0,0.58,0.43,1.01,1,1.01C57.32,42.12,57.76,41.68,57.76,41.09z"></path>	</g>	<g>		<path class="st0" d="M36.52,38.3c1.42,0,2.84,0.01,4.27,0c0.29,0,0.51,0.09,0.72,0.3c1.36,1.38,2.74,2.75,4.12,4.12   c0.26,0.26,0.39,0.54,0.39,0.92c-0.01,2.82,0,5.64,0,8.46c0,0.5-0.19,0.71-0.69,0.71c-2.89,0-5.79,0-8.68,0   c-0.26,0-0.45-0.08-0.62-0.26c-1.42-1.43-2.85-2.85-4.28-4.27c-0.18-0.18-0.25-0.38-0.25-0.63c0-2.88,0-5.76,0-8.64   c0-0.52,0.19-0.7,0.73-0.7C33.65,38.29,35.09,38.29,36.52,38.3C36.52,38.3,36.52,38.3,36.52,38.3z M33.45,39.42   c0,0.03,0,0.06,0.01,0.07c1.04,1.04,2.08,2.08,3.11,3.12c0.12,0.12,0.25,0.17,0.42,0.17c1.03-0.01,2.05-0.02,3.08,0   c0.31,0.01,0.38-0.11,0.37-0.39c-0.01-0.89-0.02-1.78,0-2.67c0.01-0.31-0.11-0.37-0.39-0.37c-2.11,0.01-4.23,0.01-6.34,0.01   C33.64,39.37,33.53,39.32,33.45,39.42z M44.82,50.9c0.06-0.1,0.08-0.11,0.08-0.12c0.01-2.21,0.01-4.42,0.02-6.63   c0-0.24-0.12-0.29-0.32-0.29c-0.93,0-1.85,0-2.78-0.01c-0.24,0-0.32,0.09-0.31,0.33c0.01,0.83,0.04,1.66-0.01,2.48   c-0.04,0.62,0.15,1.06,0.6,1.48C43.03,49.03,43.9,49.96,44.82,50.9z M32.65,40.22c-0.03,0.1-0.06,0.13-0.06,0.16   c0,2.2,0,4.4-0.01,6.6c0,0.25,0.13,0.25,0.3,0.25c0.91,0,1.83-0.01,2.74,0c0.28,0,0.33-0.11,0.33-0.35   c-0.01-1.03,0-2.05,0.01-3.08c0-0.2-0.06-0.35-0.2-0.49c-0.6-0.59-1.19-1.19-1.79-1.78C33.54,41.1,33.11,40.67,32.65,40.22z    M44.06,51.69c-0.06-0.09-0.07-0.13-0.1-0.15c-1.01-1.02-2.02-2.03-3.03-3.05c-0.11-0.12-0.24-0.16-0.4-0.15   c-1.06,0-2.13,0-3.19,0c-0.22,0-0.3,0.07-0.3,0.3c0.01,0.9,0.01,1.81,0,2.71c0,0.28,0.08,0.37,0.36,0.36   c1.09-0.01,2.18-0.01,3.26-0.01C41.77,51.69,42.88,51.69,44.06,51.69z M38.71,47.23C38.71,47.23,38.71,47.23,38.71,47.23   c0.47,0,0.94-0.01,1.41,0.01c0.24,0.01,0.32-0.08,0.32-0.32c-0.01-0.9-0.01-1.81,0.01-2.71c0-0.26-0.1-0.35-0.35-0.34   c-0.93,0.01-1.86,0.01-2.78,0c-0.21,0-0.28,0.07-0.28,0.28c0.01,0.93,0.02,1.86,0,2.78c0,0.26,0.11,0.31,0.33,0.31   C37.82,47.22,38.27,47.23,38.71,47.23z M41.51,40.26c0,0.78,0,1.56,0,2.33c0,0.12,0.06,0.18,0.18,0.18c0.77,0,1.54,0,2.36,0   C43.18,41.91,42.36,41.1,41.51,40.26z M35.86,50.84c0.03-0.01,0.06-0.03,0.09-0.04c0-0.76,0-1.52,0-2.28   c0-0.15-0.08-0.18-0.21-0.18c-0.69,0-1.38,0-2.07,0c-0.06,0-0.13-0.02-0.16,0.05c-0.03,0.07,0.03,0.11,0.07,0.15   C34.33,49.31,35.1,50.07,35.86,50.84z"></path>		<path class="st0" d="M49.09,53.11c-0.31,0-0.62,0.01-0.93,0c-0.34-0.02-0.54-0.24-0.52-0.55c0.02-0.32,0.21-0.52,0.52-0.51   c0.35,0.02,0.39-0.13,0.39-0.43c0-4.13,0-8.25,0.01-12.38c0-0.28-0.02-0.46-0.39-0.45c-0.34,0.01-0.57-0.28-0.54-0.58   c0.02-0.29,0.25-0.49,0.58-0.5c0.58-0.01,1.16-0.01,1.74,0c0.36,0,0.56,0.18,0.59,0.48c0.02,0.33-0.15,0.57-0.52,0.58   c-0.34,0.01-0.39,0.16-0.38,0.45c0.01,4.15,0.01,8.3,0,12.45c0,0.27,0.05,0.37,0.34,0.36c0.35-0.01,0.55,0.19,0.56,0.5   c0.01,0.34-0.17,0.55-0.54,0.57c-0.31,0.02-0.62,0-0.93,0C49.09,53.12,49.09,53.12,49.09,53.11z"></path>		<path class="st0" d="M39.72,55.49c-2.1,0-4.2,0-6.29,0c-0.23,0-0.33,0.05-0.32,0.3c0.01,0.41-0.19,0.62-0.52,0.63   c-0.32,0.01-0.56-0.24-0.56-0.64c-0.01-0.56-0.01-1.11,0-1.67c0.01-0.37,0.25-0.63,0.54-0.64c0.32-0.01,0.55,0.24,0.54,0.65   c-0.01,0.26,0.1,0.3,0.33,0.3c4.2,0,8.4,0,12.6,0c0.26,0,0.34-0.08,0.34-0.34c0-0.39,0.24-0.63,0.54-0.62   c0.31,0.01,0.52,0.27,0.52,0.64c0,0.56,0,1.11,0,1.67c0,0.39-0.2,0.62-0.52,0.64c-0.33,0.01-0.56-0.21-0.55-0.6   c0.01-0.32-0.15-0.33-0.38-0.33C43.9,55.49,41.81,55.49,39.72,55.49C39.72,55.49,39.72,55.49,39.72,55.49z"></path>	</g>	<g>		<path class="st0" d="M69.76,32.77c0.58,0,1.06,0.47,1.06,1.06v27.23H29.03V33.83c0-0.58,0.47-1.06,1.06-1.06H69.76 M69.76,30.66   H30.09c-1.75,0-3.17,1.42-3.17,3.17v29.33h46V33.83C72.92,32.08,71.5,30.66,69.76,30.66L69.76,30.66z"></path>	</g>	<g>		<path class="st0" d="M74.22,69.47H25.63c-1.77,0-3.21-1.44-3.21-3.21v0c0-1.77,1.44-3.21,3.21-3.21h48.58   c1.77,0,3.21,1.44,3.21,3.21v0C77.42,68.03,75.99,69.47,74.22,69.47z M58.43,65.34H41.42v1.83h17.01V65.34z"></path>	</g></g></svg>