<svg xmlns="http://www.w3.org/2000/svg" xmlns:xlink="http://www.w3.org/1999/xlink" id="Layer_1" x="0px" y="0px" viewBox="0 0 100 100" style="enable-background:new 0 0 100 100;" xml:space="preserve"><style type="text/css">	.st0{fill:none;stroke:#FFFFFF;stroke-width:1.9694;stroke-linejoin:round;stroke-miterlimit:10;}	.st1{fill:#111111;}	.st2{fill:#101010;}	.st3{fill:#F0F0F2;}	.st4{fill:none;stroke:#FFFFFF;stroke-width:1.4771;stroke-miterlimit:10;}	.st5{fill:none;stroke:#FFFFFF;stroke-width:1.9694;stroke-linecap:round;stroke-linejoin:round;stroke-miterlimit:10;}</style><g>	<path class="st0" d="M63.2,41.4V22.7c0-0.7-0.6-1.3-1.3-1.3l0,0H23.5c-0.7,0-1.3,0.6-1.3,1.3v53.2c0,0.7,0.6,1.3,1.3,1.3h38.4  c0.7,0,1.3-0.6,1.3-1.3V60.1"></path>	<g>		<line class="st0" x1="36.9" y1="27.3" x2="48.4" y2="27.3"></line>	</g>	<g>		<line class="st0" x1="31.4" y1="30.9" x2="53.9" y2="30.9"></line>	</g>	<line class="st0" x1="25.8" y1="56.7" x2="42.9" y2="56.7"></line>	<line class="st0" x1="25.8" y1="60.4" x2="42.9" y2="60.4"></line>	<line class="st0" x1="25.8" y1="64.1" x2="48.5" y2="64.1"></line>	<line class="st0" x1="25.8" y1="67.8" x2="48.5" y2="67.8"></line>	<path class="st1" d="M54.1,36.4C54.1,36.3,54.1,36.3,54.1,36.4C54.1,36.3,54.1,36.3,54.1,36.4z"></path>	<path class="st2" d="M45.9,51.9C45.9,51.9,45.8,51.9,45.9,51.9C45.8,51.9,45.9,51.9,45.9,51.9z"></path>	<path class="st3" d="M68.3,54.5L68.3,54.5L68.3,54.5z"></path>	<g>		<polyline class="st4" points="72,48.7 77.6,43.1 71.2,42.2 70.4,35.9 70.4,35.9 64.7,41.4   "></polyline>		<polyline class="st4" points="54.2,52 48.5,57.8 54.7,58.5 55.7,65 61.5,59.2   "></polyline>		<polyline class="st4" points="61.4,41.4 55.8,35.9 55.8,35.9 55,42.2 48.6,43.1 54.2,48.7   "></polyline>		<polyline class="st4" points="64.7,59.2 70.5,65 71.5,58.5 77.7,57.8 71.9,52   "></polyline>		<path class="st4" d="M63,41.2c-5,0-9.2,4.1-9.2,9.2s4.1,9.2,9.2,9.2c5,0,9.2-4.1,9.2-9.2S68.1,41.2,63,41.2L63,41.2z"></path>	</g>	<polyline class="st5" points="58.6,52 60.3,53.8 66.7,47.4  "></polyline></g></svg>