<svg xmlns="http://www.w3.org/2000/svg" xmlns:xlink="http://www.w3.org/1999/xlink" id="Layer_1" x="0px" y="0px" viewBox="0 0 100 100" style="enable-background:new 0 0 100 100;" xml:space="preserve"><style type="text/css">	.st0{fill:#FFFFFF;}	.st1{fill:none;stroke:#FFFFFF;stroke-width:0.3222;stroke-miterlimit:10;}	.st2{fill:none;stroke:#FFFFFF;stroke-width:3.8659;stroke-miterlimit:10;}</style><g>	<g>		<path class="st0" d="M72.58,45.27v29.72H27.27V45.27H72.58 M75.16,42.69H24.69v34.87h50.47V42.69L75.16,42.69z"></path>	</g>	<rect x="52.95" y="57.51" class="st0" width="6.31" height="1.05"></rect>	<rect x="52.95" y="60" class="st0" width="6.31" height="1.05"></rect>	<g>		<path class="st0" d="M66.93,51.06v2.4H54.24v-2.4H66.93 M68.22,49.78H52.95v4.98h15.26V49.78L68.22,49.78z"></path>	</g>	<g>		<path class="st0" d="M69.51,48.24v19.69H51.75V48.24H69.51 M70.8,46.95H50.47v22.27H70.8V46.95L70.8,46.95z"></path>	</g>	<rect x="52.95" y="64.2" class="st0" width="2.42" height="2.42"></rect>	<rect x="56.16" y="64.2" class="st0" width="2.42" height="2.42"></rect>	<rect x="59.38" y="64.2" class="st0" width="2.42" height="2.42"></rect>	<g>		<line class="st1" x1="52.96" y1="62.72" x2="68.19" y2="62.72"></line>	</g>	<line class="st2" x1="31.64" y1="22.56" x2="31.64" y2="43.89"></line>	<line class="st2" x1="37.36" y1="22.56" x2="37.36" y2="43.89"></line>	<line class="st2" x1="43.07" y1="22.56" x2="43.07" y2="43.89"></line>	<line class="st2" x1="48.79" y1="22.56" x2="48.79" y2="43.89"></line></g></svg>