<svg xmlns="http://www.w3.org/2000/svg" xmlns:xlink="http://www.w3.org/1999/xlink" id="Layer_1" x="0px" y="0px" viewBox="0 0 100 100" style="enable-background:new 0 0 100 100;" xml:space="preserve"><style type="text/css">	.st0{fill:#FFFFFF;}	.st1{fill:none;stroke:#FFFFFF;stroke-miterlimit:10;}</style><g>	<path class="st0" d="M71.16,47.09c0,1.24-0.05,2.49,0.01,3.73c0.08,1.69-0.64,2.98-1.85,4.06c-1.4,1.25-3.07,2.03-4.8,2.68  c-0.91,0.34-1.84,0.61-2.77,0.87c-0.24,0.06-0.33,0.02-0.4-0.22c-0.33-1.04-0.33-1.02,0.71-1.33c2.05-0.61,4.05-1.33,5.79-2.62  c0.66-0.49,1.24-1.05,1.61-1.8c0.51-1.03,0.3-1.98-0.37-2.85c-0.98-1.28-2.36-2.02-3.79-2.66c-2.65-1.17-5.44-1.79-8.29-2.21  c-3.02-0.45-6.06-0.57-9.1-0.45c-4.34,0.17-8.61,0.75-12.68,2.37c-1.61,0.64-3.14,1.41-4.31,2.74c-1.09,1.24-1.08,2.63,0.01,3.87  c1.17,1.33,2.72,2.08,4.31,2.74c1.01,0.42,2.06,0.75,3.12,1.01c0.29,0.07,0.41,0.17,0.31,0.52c-0.27,0.94-0.26,0.96-1.23,0.69  c-2.29-0.64-4.5-1.47-6.41-2.94c-1.13-0.87-2.05-1.91-2.29-3.4c-0.04-0.23-0.05-0.47-0.05-0.71c0-2.55,0.06-5.1-0.02-7.65  c-0.07-1.98,0.8-3.41,2.28-4.58c1.7-1.34,3.67-2.15,5.71-2.79c2.98-0.93,6.05-1.41,9.16-1.65c2.45-0.19,4.9-0.22,7.36-0.07  c3.9,0.24,7.73,0.83,11.41,2.19c1.92,0.71,3.75,1.6,5.2,3.11c0.94,0.98,1.45,2.13,1.4,3.53C71.12,44.54,71.16,45.82,71.16,47.09  C71.16,47.09,71.16,47.09,71.16,47.09z M30.12,45.28c0.12-0.08,0.18-0.11,0.22-0.15c1.08-1,2.32-1.73,3.66-2.31  c4.21-1.84,8.68-2.5,13.22-2.74c2.58-0.14,5.16-0.08,7.73,0.17c2.57,0.24,5.1,0.65,7.57,1.37c2.59,0.76,5.09,1.73,7.11,3.62  c0.01,0.01,0.05-0.01,0.1-0.03c0-0.63-0.04-1.27,0.01-1.9c0.1-1.29-0.5-2.23-1.43-3.02c-1.4-1.2-3.06-1.93-4.78-2.52  c-3.99-1.37-8.13-1.87-12.32-1.99c-3.17-0.09-6.33,0.12-9.47,0.64c-2.5,0.42-4.94,1.03-7.26,2.07c-1.36,0.61-2.65,1.33-3.63,2.5  c-0.39,0.46-0.69,0.98-0.72,1.58C30.08,43.44,30.12,44.32,30.12,45.28z M69.69,48.15c-0.12-0.66-0.38-1.11-0.73-1.53  c-0.87-1.02-1.97-1.7-3.16-2.26c-4.08-1.92-8.45-2.57-12.89-2.86c-2.34-0.15-4.68-0.1-7.02,0.07c-2.86,0.21-5.68,0.66-8.44,1.48  c-1.99,0.59-3.92,1.33-5.58,2.62c-0.78,0.6-1.46,1.3-1.7,2.32c0.15,0.04,0.21-0.05,0.27-0.11c1.21-1.1,2.62-1.86,4.11-2.47  c3.4-1.39,6.97-2.04,10.61-2.36c3.39-0.3,6.78-0.28,10.17,0.07c2.95,0.3,5.84,0.83,8.65,1.8C66.03,45.63,67.99,46.52,69.69,48.15z"></path>	<path class="st1" d="M49.67,48.47c3.04,0,5.77,0.31,8.41,1.26c0.98,0.35,1.91,0.8,2.7,1.49c0.65,0.57,1.15,1.24,1.11,2.17  c-0.01,0.33-0.13,0.62-0.27,0.91c-1.17,2.35-2.35,4.7-3.52,7.05c-0.18,0.37-0.36,0.73-0.48,1.14c-0.23,0.76-0.83,1.23-1.5,1.59  c-1.16,0.64-2.43,0.95-3.72,1.11c-2.24,0.28-4.48,0.23-6.68-0.34c-0.93-0.24-1.82-0.57-2.59-1.17c-0.48-0.37-0.76-0.85-0.98-1.43  c-0.31-0.83-0.75-1.61-1.14-2.41c-0.88-1.78-1.74-3.57-2.68-5.32c-0.71-1.34-0.29-2.35,0.64-3.2c0.95-0.86,2.1-1.38,3.3-1.77  C44.76,48.75,47.32,48.45,49.67,48.47z M49.71,49.87c-0.75,0.03-1.73,0.03-2.72,0.14c-1.89,0.21-3.74,0.56-5.49,1.34  c-0.7,0.31-1.36,0.69-1.87,1.29c-0.27,0.33-0.33,0.67-0.14,1.06c1.08,2.15,2.15,4.3,3.22,6.45c0.11,0.21,0.17,0.25,0.38,0.1  c0.74-0.57,1.6-0.91,2.5-1.15c2.31-0.62,4.65-0.7,7-0.35c1.48,0.22,2.94,0.56,4.17,1.5c0.29,0.22,0.31-0.03,0.39-0.19  c1.02-2.03,2.04-4.07,3.06-6.1c0.4-0.79,0.33-1.12-0.36-1.69c-0.64-0.54-1.39-0.9-2.17-1.19C55.19,50.16,52.59,49.89,49.71,49.87z   M50.25,63.91c0.93,0.02,2.21-0.11,3.47-0.43c0.74-0.19,1.47-0.43,2.09-0.89c0.63-0.46,0.62-0.85-0.01-1.31  c-0.27-0.2-0.57-0.35-0.88-0.47c-1.93-0.77-3.95-0.93-6-0.82c-1.45,0.08-2.88,0.29-4.22,0.91c-0.35,0.16-0.68,0.35-0.95,0.63  c-0.27,0.28-0.26,0.56,0.01,0.84c0.23,0.23,0.49,0.4,0.78,0.54C46.25,63.72,48.05,63.9,50.25,63.91z"></path>	<path class="st1" d="M32.19,52.02c-0.3-0.04-0.8,0.17-0.65-0.45c0.08-0.33-0.4-1.02,0.46-0.93c0.33,0.03,0.96-0.4,0.93,0.46  C32.9,52.02,32.92,52.02,32.19,52.02z"></path>	<path class="st1" d="M67.6,52.02c-0.33-0.02-0.74,0.16-0.69-0.49c0.06-0.91,0.02-0.89,1-0.92c0.65-0.02,0.39,0.45,0.4,0.72  C68.34,52.02,68.32,52.03,67.6,52.02z"></path>	<path class="st1" d="M49.92,45.69c0.32,0.03,0.74-0.18,0.71,0.47c-0.06,1.04,0.07,0.94-0.5,0.89c-0.3-0.03-0.9,0.4-0.9-0.39  C49.23,45.7,49.23,45.7,49.92,45.69z"></path>	<path class="st1" d="M53.19,52.49c0.11,0.02,0.22,0.04,0.33,0.06c0.8,0.16,0.82,0.17,0.7,0.93c-0.17,1.04-0.37,2.08-0.54,3.13  c-0.04,0.26-0.14,0.32-0.36,0.27c-0.03-0.01-0.06-0.01-0.09-0.02c-0.96-0.17-0.96-0.17-0.81-1.12c0.15-0.98,0.32-1.96,0.48-2.94  C52.92,52.61,52.92,52.43,53.19,52.49z"></path>	<path class="st1" d="M47.56,56.38c0.15,0.28-0.07,0.35-0.36,0.4c-0.94,0.17-0.95,0.18-1.13-0.77c-0.19-1.01-0.35-2.03-0.53-3.04  c-0.07-0.38,0.26-0.38,0.41-0.34c0.34,0.08,0.84-0.51,0.99,0.13C47.2,53.93,47.35,55.12,47.56,56.38z"></path>	<path class="st1" d="M56.5,53.63c0.3,0.1,0.6,0.21,0.9,0.3c0.2,0.06,0.19,0.18,0.14,0.33c-0.37,1.2-0.74,2.39-1.12,3.59  c-0.14,0.46-0.49,0.14-0.61,0.06c-0.24-0.16-0.87,0.08-0.72-0.49c0.32-1.21,0.73-2.39,1.1-3.59C56.25,53.68,56.3,53.55,56.5,53.63z  "></path>	<path class="st1" d="M43.43,53.62c0.21-0.04,0.21,0.15,0.24,0.24c0.38,1.19,0.74,2.39,1.11,3.59c0.01,0.05,0.06,0.12,0.05,0.13  c-0.3,0.31-0.73,0.31-1.11,0.45c-0.22,0.08-0.26-0.1-0.3-0.26c-0.36-1.15-0.72-2.3-1.09-3.45c-0.07-0.23-0.05-0.35,0.2-0.41  C42.83,53.83,43.13,53.72,43.43,53.62z"></path>	<path class="st1" d="M50.61,54.19c0,0.57-0.01,1.14,0,1.72c0.01,0.27-0.06,0.39-0.37,0.4c-1.02,0.02-1.02,0.03-1.02-0.97  c0-0.95,0.01-1.91,0-2.86c0-0.31,0.05-0.45,0.41-0.45c0.98,0,0.98-0.01,0.98,0.98C50.61,53.4,50.61,53.79,50.61,54.19z"></path>	<path class="st1" d="M49.88,62.64c-0.26-0.05-0.69,0.19-0.66-0.45c0.05-0.97,0.01-0.97,0.84-0.97c0.66,0.01,0.54-0.08,0.56,0.91  C50.62,62.64,50.62,62.64,49.88,62.64z"></path></g></svg>