<svg xmlns="http://www.w3.org/2000/svg" xmlns:xlink="http://www.w3.org/1999/xlink" id="Layer_1" x="0px" y="0px" viewBox="0 0 100 100" style="enable-background:new 0 0 100 100;" xml:space="preserve"><style type="text/css">	.st0{fill:none;stroke:#FFFFFF;stroke-width:2;stroke-linejoin:round;stroke-miterlimit:10;}	.st1{fill:#111111;}	.st2{fill:#101010;}	.st3{fill:#F0F0F2;}	.st4{fill:none;stroke:#FFFFFF;stroke-width:1.5;stroke-miterlimit:10;}	.st5{fill:none;stroke:#FFFFFF;stroke-width:2;stroke-linecap:round;stroke-linejoin:round;stroke-miterlimit:10;}</style><path class="st0" d="M63.9,42V23c0-0.7-0.6-1.3-1.3-1.3l0,0h-39c-0.7,0-1.3,0.6-1.3,1.3v54c0,0.7,0.6,1.3,1.3,1.3h39 c0.7,0,1.3-0.6,1.3-1.3V60.9"></path><g>	<line class="st0" x1="37.2" y1="27.6" x2="48.9" y2="27.6"></line></g><g>	<line class="st0" x1="31.6" y1="31.3" x2="54.5" y2="31.3"></line></g><line class="st0" x1="25.9" y1="57.5" x2="43.3" y2="57.5"></line><line class="st0" x1="25.9" y1="61.2" x2="43.3" y2="61.2"></line><line class="st0" x1="25.9" y1="65" x2="49" y2="65"></line><line class="st0" x1="25.9" y1="68.8" x2="49" y2="68.8"></line><path class="st1" d="M54.7,36.9C54.7,36.8,54.7,36.8,54.7,36.9C54.7,36.8,54.7,36.8,54.7,36.9z"></path><path class="st2" d="M46.3,52.6C46.3,52.6,46.2,52.6,46.3,52.6C46.2,52.6,46.3,52.6,46.3,52.6z"></path><path class="st3" d="M69.1,55.3c0,0,0.1-0.1,0.1-0.1C69.2,55.2,69.1,55.3,69.1,55.3z"></path><g>	<polyline class="st4" points="72.8,49.4 78.5,43.7 72,42.8 71.2,36.4 71.2,36.4 65.4,42  "></polyline>	<polyline class="st4" points="54.8,52.7 49,58.6 55.3,59.3 56.3,65.9 62.2,60  "></polyline>	<polyline class="st4" points="62.1,42 56.4,36.4 56.4,36.4 55.6,42.8 49.1,43.7 54.8,49.4  "></polyline>	<polyline class="st4" points="65.4,60 71.3,65.9 72.3,59.3 78.6,58.6 72.7,52.7  "></polyline>	<path class="st4" d="M63.7,41.8c-5.1,0-9.3,4.2-9.3,9.3s4.2,9.3,9.3,9.3s9.3-4.2,9.3-9.3S68.9,41.8,63.7,41.8L63.7,41.8z"></path></g><polyline class="st5" points="59.2,52.7 61,54.5 67.5,48 "></polyline></svg>